<?xml version="1.0" encoding="utf-8"?>
<!-- Generator: Adobe Illustrator 27.9.0, SVG Export Plug-In . SVG Version: 6.00 Build 0)  -->
<svg version="1.1" id="Layer_1" xmlns="http://www.w3.org/2000/svg" xmlns:xlink="http://www.w3.org/1999/xlink" x="0px" y="0px"
	 viewBox="0 0 800 131.58" style="enable-background:new 0 0 800 131.58;" xml:space="preserve">
<style type="text/css">
	.st0{fill:#FFFFFF;}
</style>
<g>
	<path class="st0" d="M38.37,28.97c-0.61-1.68-0.46-2.59,1.52-2.9c10.51-1.37,18.13-7.47,28.04-8.99
		c9.75-1.52,17.37,3.5,23.01,13.41c14.02,24.38-13.1,68.87-53.94,82.43c-4.42,1.52-7.16,1.07-9.75-1.07
		c-1.83-1.52-4.27-3.5-6.4-6.55c-2.9-3.96-3.66-6.25-0.46-16.15c4.72-14.32,17.37-38.09,27.88-53.79
		C42.33,35.06,39.28,31.25,38.37,28.97z M52.39,49.84C44.77,63.4,32.43,83.67,28.01,97.68c-1.98,6.4-0.91,8.53,3.66,6.86
		c41.6-15.85,60.79-59.42,51.8-73.75c-5.33-8.53-16.46-0.46-27.12,3.05C57.11,37.65,56.2,43.14,52.39,49.84z"/>
	<path class="st0" d="M141.67,52.89c1.37-1.98,2.59-2.29,3.66-0.91c2.29,2.74,3.5,9.3-0.15,16.91
		c-3.35,6.86-10.97,18.28-14.63,26.36c-3.81,8.53-3.96,15.08,1.22,14.78c6.25-0.3,14.63-10.67,19.96-21.18
		c0.76-1.37,1.83-1.52,2.44-0.15c0.61,1.37,0.61,5.18-1.37,9.45c-3.96,8.38-13.56,16.76-21.94,16.3
		c-8.23-0.46-12.49-5.33-12.49-12.49c-4.88,6.25-11.73,11.88-19.05,11.88c-14.17,0-17.06-19.35-4.42-37.79
		c12.34-17.98,24.38-24.84,32-24.84c6.55,0,9.6,5.03,9.29,10.97C138.16,58.53,139.99,55.33,141.67,52.89z M129.48,59.14
		c-4.88-0.46-16,9.45-24.38,23.01c-8.07,13.1-10.06,26.51-4.11,26.66c6.25,0.15,14.17-9.6,21.94-23.01
		C132.53,69.04,133.9,59.59,129.48,59.14z"/>
	<path class="st0" d="M196.52,51.82c5.18,0.15,7.92,8.23,5.94,14.93c7.31-7.16,17.52-14.32,22.55-14.17
		c5.49,0.15,6.7,9.14,3.66,16.76c-2.74,6.86-10.21,16.91-14.02,24.53c-4.27,8.69-2.13,15.69,3.35,15.54
		c6.25-0.15,13.1-10.21,19.05-20.87c0.76-1.37,1.98-1.37,2.74-0.3c0.76,1.07,0.3,6.09-1.37,9.6c-4.27,8.68-14.02,16.3-22.85,16.3
		c-13.26,0-18.13-10.51-12.49-23.01c5.64-12.65,19.2-29.71,16.91-30.47c-1.22-0.46-6.4,1.22-16.3,11.12
		c-12.65,12.65-20.11,27.27-26.51,41.6c-0.91,1.83-2.13,2.29-3.5,0.76c-2.59-2.29-4.72-8.23-0.3-19.2
		c5.03-12.65,21.48-33.67,18.44-34.74c-1.83-0.76-9.29,3.35-19.05,14.02c-8.99,9.75-16.3,23.92-22.4,38.24
		c-0.61,1.37-1.52,1.98-2.89,0.76c-3.35-2.89-4.11-7.92-1.52-15.69c3.2-9.6,14.32-31.08,23.92-45.41c1.07-1.68,2.29-1.52,3.2,0
		c2.59,4.27,2.13,10.21-0.15,16.3C179.61,60.66,191.03,51.67,196.52,51.82z"/>
	<path class="st0" d="M235.21,91.74c3.81-11.12,13.86-29.1,19.5-37.03c1.37-1.83,2.44-2.29,3.66-0.91c2.29,2.44,3.5,8.99-0.15,16.61
		c-3.2,6.7-9.6,17.06-12.8,24.68c-3.66,8.84-3.35,14.78,1.52,14.47c6.86-0.3,15.24-10.36,19.81-20.87c0.76-1.37,1.83-1.22,2.44,0
		c1.22,2.44,0.76,5.64-1.07,9.45c-4.57,9.45-14.17,15.85-22.7,15.85C233.84,113.99,230.95,104.24,235.21,91.74z M269.19,51.97
		c-1.98,2.13-6.25,1.68-8.53-2.29c-2.44-4.11-1.68-8.68,0.76-11.27c2.44-2.59,6.86-0.76,8.84,3.35
		C272.24,45.73,271.17,49.84,269.19,51.97z"/>
	<path class="st0" d="M319.62,52.89c1.37-1.98,2.59-2.29,3.66-0.91c2.29,2.74,3.5,9.3-0.15,16.91
		c-3.35,6.86-10.97,18.28-14.63,26.36c-3.81,8.53-3.96,15.08,1.22,14.78c6.25-0.3,14.63-10.67,19.96-21.18
		c0.76-1.37,1.83-1.52,2.44-0.15c0.61,1.37,0.61,5.18-1.37,9.45c-3.96,8.38-13.56,16.76-21.94,16.3
		c-8.23-0.46-12.49-5.33-12.49-12.49c-4.88,6.25-11.73,11.88-19.05,11.88c-14.17,0-17.06-19.35-4.42-37.79
		c12.34-17.98,24.38-24.84,32-24.84c6.55,0,9.6,5.03,9.29,10.97C316.12,58.53,317.95,55.33,319.62,52.89z M307.43,59.14
		c-4.88-0.46-16,9.45-24.38,23.01c-8.08,13.1-10.06,26.51-4.11,26.66c6.25,0.15,14.17-9.6,21.94-23.01
		C310.48,69.04,311.85,59.59,307.43,59.14z M308.35,37.2c7.01-1.22,13.1,4.42,21.48,0.3c1.37-0.61,2.29-0.15,1.52,1.52
		c-1.52,3.66-4.11,5.79-7.62,6.7c-8.38,2.13-15.85-3.81-22.86-0.15c-1.37,0.76-1.98,0-1.52-1.22
		C300.27,41.61,303.93,37.96,308.35,37.2z"/>
	<path class="st0" d="M374.78,80.92c-3.2,12.95-12.8,28.34-24.07,32.15c-5.49,1.83-13.1,1.22-19.2-6.7
		c-6.7-8.84-4.42-22.09,2.44-34.28c5.79-10.36,15.08-19.2,24.23-19.81c4.72-0.3,7.31,1.07,10.36,5.18c3.5,4.72,8.08,5.79,7.16,16.76
		c-0.15,1.22-0.15,2.29-0.3,3.5c0.91,0,1.83-0.3,3.05-0.3c1.07,0,1.07,0.76,0.46,1.52C377.83,80.16,376.3,80.77,374.78,80.92z
		 M361.83,77.11c-3.2-2.44-6.86-7.77-7.01-13.41c-4.11,3.5-8.53,8.53-11.73,14.32c-6.4,11.58-8.68,25.6-4.72,28.95
		c4.27,3.5,13.56-1.83,21.03-15.85c2.29-4.27,4.11-8.53,5.33-12.19C363.66,78.49,362.74,77.88,361.83,77.11z M367.01,63.55
		c-0.76-4.88-3.81-3.96-4.57,0.46c-0.76,4.11,0.91,8.53,3.35,10.82C367.01,70.11,367.46,66.3,367.01,63.55z"/>
	<path class="st0" d="M412.25,113.53c-0.61,1.52-1.52,1.52-2.59,0.3c-2.13-2.29-3.81-7.47-0.3-16.61
		c5.64-14.47,30.32-55.16,46.78-77.55c1.37-1.98,2.9-2.59,4.88-0.91c5.94,5.18,7.62,10.51,3.66,22.55
		c-4.88,14.63-10.36,32.45-16.15,53.79c16.61-27.12,38.85-49.82,55.61-75.88c1.37-2.13,2.59-2.29,4.42-0.46
		c6.09,6.25,4.57,14.63,0.46,22.25c-10.67,19.81-25.9,50.59-33.52,72.53c-0.61,1.52-1.22,1.52-2.44,0.46
		c-2.44-1.98-4.27-6.55-1.68-16.61c2.29-8.99,12.04-30.32,21.94-49.37c-17.37,21.03-35.04,44.34-46.01,64.76
		c-0.76,1.52-1.52,1.98-2.74,1.07c-5.03-3.66-7.31-8.99-5.79-18.44c1.37-8.69,6.4-29.71,13.1-49.98
		C438.31,65.84,421.24,93.11,412.25,113.53z"/>
	<path class="st0" d="M508.7,113.38c-14.02,0-17.06-19.35-4.42-37.63c12.19-17.52,24.23-24.53,32-24.53c5.94,0,8.99,4.72,8.99,10.06
		c2.29-3.81,4.27-6.86,5.33-8.38c1.22-1.83,2.44-2.29,3.66-0.91c2.44,2.74,3.5,9.14,0.15,16.76c-3.05,6.86-11.12,18.74-14.47,26.51
		c-3.66,8.68-3.05,14.32,1.68,13.86c9.75-0.91,23.46-19.66,30.63-42.05c-12.34-4.42,2.13-25.14,8.23-25.6c4.72-0.3,3.2,8.68,0,19.2
		c5.49-0.61,11.12-3.2,16.91-7.16c2.13-1.52,3.2-1.83,4.57-0.3c2.89,3.2,6.55,10.21,2.13,15.39c-7.16,8.23-14.93,18.89-17.37,26.51
		c-2.59,8.38-0.91,14.32,3.81,14.63c6.4,0.46,14.02-9.6,18.89-21.03c0.61-1.22,1.68-1.52,2.29,0c0.76,1.83,1.22,5.64-0.61,9.9
		c-3.96,9.14-12.95,15.85-21.33,15.54c-11.58-0.46-16.15-10.97-12.49-23.16c3.05-10.06,12.34-21.33,18.89-28.64
		c-6.7,3.96-13.26,5.64-17.98,5.64c-7.47,21.48-21.18,44.49-37.48,45.71c-8.38,0.61-12.95-4.72-12.8-12.49
		C523.02,107.44,516.16,113.38,508.7,113.38z M514.33,81.84c-8.23,13.1-9.9,26.36-3.96,26.51c6.1,0.15,14.02-9.14,21.79-22.85
		c9.45-16.61,10.82-26.21,6.4-26.51C533.84,58.68,522.71,68.43,514.33,81.84z"/>
	<path class="st0" d="M616.11,48.47c-1.52-2.13-0.61-3.2,1.68-3.05c4.27,0.15,8.53-0.15,12.65-0.61
		c4.72-8.38,8.99-15.54,11.58-18.89c1.37-1.98,2.89-1.83,3.66,0c1.68,4.27,1.68,9.29-1.98,17.22c5.94-0.15,8.23,2.59,9.45,4.57
		c1.07,1.83,0.46,2.9-1.83,2.9c-3.35-0.46-8.08,0-11.88,0.61C633.48,61.42,624.8,76.2,619.01,89c-5.03,11.12-3.35,20.57,3.05,20.87
		c6.86,0.3,15.54-10.51,21.18-21.94c0.91-1.83,2.59-2.13,3.2,0c0.76,2.44,0,5.18-1.52,8.68c-1.98,4.42-12.04,17.83-24.23,17.37
		c-10.06-0.3-18.13-11.58-10.82-29.1c3.2-7.62,9.6-20.42,16.15-32.45C620.83,52.43,617.33,50.15,616.11,48.47z"/>
	<path class="st0" d="M639.88,91.74c3.81-11.12,13.86-29.1,19.5-37.03c1.37-1.83,2.44-2.29,3.66-0.91c2.29,2.44,3.5,8.99-0.15,16.61
		c-3.2,6.7-9.6,17.06-12.8,24.68c-3.66,8.84-3.35,14.78,1.52,14.47c6.86-0.3,15.24-10.36,19.81-20.87c0.76-1.37,1.83-1.22,2.44,0
		c1.22,2.44,0.76,5.64-1.07,9.45c-4.57,9.45-14.17,15.85-22.7,15.85C638.5,113.99,635.61,104.24,639.88,91.74z M673.85,51.97
		c-1.98,2.13-6.25,1.68-8.53-2.29c-2.44-4.11-1.68-8.68,0.76-11.27c2.44-2.59,6.86-0.76,8.84,3.35
		C676.9,45.73,675.83,49.84,673.85,51.97z"/>
	<path class="st0" d="M716.82,51.97c5.03,0.76,9.75,8.23,5.94,16.15c-3.2,6.7-10.66,17.98-14.17,25.9c-3.96,8.84-3.05,16,2.44,15.69
		c6.25-0.3,13.71-10.36,19.5-21.03c0.76-1.37,1.83-1.37,2.59-0.15c1.07,1.68,0.76,5.18-1.37,9.6c-4.11,8.53-13.71,16.3-22.55,16.3
		c-12.95,0-16-9.45-11.58-22.7c5.03-14.93,18.44-31.08,15.69-32.3c-1.52-0.61-10.36,3.66-20.11,14.32
		c-8.99,9.75-15.69,24.38-22.25,38.7c-0.61,1.37-1.52,1.98-2.9,0.61c-3.05-3.05-3.96-8.07-1.52-15.69
		c3.05-9.6,14.78-30.78,24.38-44.95c1.07-1.68,2.29-1.52,3.2,0c2.29,3.81,2.13,8.99,0.46,14.47
		C701.43,59.59,711.79,51.21,716.82,51.97z"/>
	<path class="st0" d="M752.16,60.51c0.76-5.94,2.29-8.84,5.49-11.73c3.35-3.05,6.86-3.66,8.23-2.29c1.52,1.52,0.76,3.2-1.22,6.7
		c-0.61,0.91-1.07,1.83-1.68,2.9c-1.07,14.02,1.83,25.9,1.37,36.42c-0.3,5.94-1.37,12.34-6.86,16
		c10.21-3.81,16.61-12.95,20.42-21.18c0.76-1.68,2.29-1.22,2.9,0c0.61,1.37,0.46,5.33-2.13,10.06
		c-5.79,10.51-16.15,16.3-26.97,16.76c-8.84,0.3-17.37-1.98-22.55-11.43c-3.66-6.86-3.2-16.91,1.98-21.18
		c1.83-1.52,3.05-0.91,3.2,1.52c0.15,1.22,0.15,2.44,0.3,3.66C740.89,78.18,747.74,68.28,752.16,60.51z M736.01,94.94
		c2.29,8.84,6.7,15.08,11.73,13.56c7.01-2.13,4.72-26.05,4.11-38.24C747.44,78.33,741.8,86.71,736.01,94.94z"/>
</g>
</svg>
